<?xml version="1.0" encoding="UTF-8"?>
<svg width="38px" height="48px" viewBox="0 0 38 48" version="1.1" xmlns="http://www.w3.org/2000/svg" xmlns:xlink="http://www.w3.org/1999/xlink">
    <g id="Symbols" stroke="none" stroke-width="1" fill="none" fill-rule="evenodd">
        <g id="Accessibility-Icon_final" transform="translate(-86, -31)" fill="#FFFFFF" fill-rule="nonzero">
            <g id="Group" transform="translate(86, 31)">
                <path d="M37.1882863,21.4111351 C36.6110665,20.8221412 35.8045372,20.5111702 34.9803629,20.5560389 L25.0053228,21.1082345 L30.4948298,14.8906657 C31.2768647,14.0049907 31.5002926,12.8243375 31.1979465,11.7693314 C31.0383976,11.0463979 30.598168,10.3886202 29.9218537,9.96836514 C29.9010818,9.95363104 16.8000612,2.38489327 16.8000612,2.38489327 C15.7302725,1.76687545 14.38226,1.90303632 13.4590656,2.72192659 L7.05939337,8.39907224 C5.88031044,9.44497134 5.77704669,11.2434202 6.82881814,12.416077 C7.88066404,13.5885858 9.68915702,13.6915764 10.8681655,12.6453071 L15.7199983,8.34124645 L19.7309798,10.6576101 L12.6509728,18.6765895 C9.71514048,19.1527453 7.07361354,20.4981391 5,22.4379317 L8.6972443,26.1147935 C10.3685983,24.6034744 12.5877638,23.6810012 15.0194874,23.6810012 C20.2062759,23.6810012 24.4260929,27.8776288 24.4260929,33.0358971 C24.4260929,35.4542149 23.4985059,37.6609983 21.9789579,39.3231382 L25.6759788,43 C28.138823,40.3962843 29.6503303,36.8928259 29.6503303,33.0358971 C29.6503303,30.7380436 29.1139098,28.5650227 28.160116,26.6327082 L32.0212273,26.4188046 L31.0819516,37.8766048 C30.9535233,39.442714 32.1262779,40.8156509 33.7011432,40.9435192 C33.7799869,40.9498867 33.8586818,40.9529224 33.9366322,40.9529224 C35.4112117,40.9529224 36.6631079,39.8260968 36.78491,38.338841 L37.9904975,23.6280621 C38.0578013,22.8083574 37.7652083,21.9999809 37.1882863,21.4111351 Z" id="Path"></path>
                <path d="M31.5002099,9 C33.9854944,9 36,6.98536282 36,4.50003498 C36,2.01484706 33.9854944,0 31.5002099,0 C29.0146455,0 27,2.01484706 27,4.50003498 C27,6.98536282 29.0145756,9 31.5002099,9 Z" id="Path"></path>
                <path d="M14.850367,42.69754 C9.58573286,42.69754 5.30256898,38.4144031 5.30256898,33.1498021 C5.30256898,31.1657153 5.91134047,29.3215785 6.95122435,27.793085 L3.15803991,24 C1.18157287,26.5221994 0,29.697222 0,33.1498021 C0,41.3514652 6.64865222,48 14.850367,48 C18.30312,48 21.4778603,46.8184346 24,44.8419044 L20.2068911,41.0489706 C18.6784636,42.0885456 16.8343152,42.69754 14.850367,42.69754 Z" id="Path"></path>
            </g>
        </g>
    </g>
</svg>