<?xml version="1.0" encoding="UTF-8"?>
<svg width="12px" height="12px" viewBox="0 0 12 12" version="1.1" xmlns="http://www.w3.org/2000/svg" xmlns:xlink="http://www.w3.org/1999/xlink">
    <title>arrow-up-right-from-square-solid</title>
    <g id="DV-Redesign-R5" stroke="none" stroke-width="1" fill="none" fill-rule="evenodd">
        <g id="05-DV-L4-About-Us---70-Years-R1" transform="translate(-1036, -769)" fill="#FFFFFF" fill-rule="nonzero">
            <g id="Side-Nav" transform="translate(1004, 484)">
                <g id="arrow-up-right-from-square-solid" transform="translate(32, 285)">
                    <path d="M7.5,0 C7.08515625,0 6.75,0.33515625 6.75,0.75 C6.75,1.16484375 7.08515625,1.5 7.5,1.5 L9.43828125,1.5 L4.7203125,6.2203125 C4.42734375,6.51328125 4.42734375,6.9890625 4.7203125,7.28203125 C5.01328125,7.575 5.4890625,7.575 5.78203125,7.28203125 L10.5,2.56171875 L10.5,4.5 C10.5,4.91484375 10.8351562,5.25 11.25,5.25 C11.6648437,5.25 12,4.91484375 12,4.5 L12,0.75 C12,0.33515625 11.6648437,0 11.25,0 L7.5,0 Z M1.875,0.75 C0.8390625,0.75 0,1.5890625 0,2.625 L0,10.125 C0,11.1609375 0.8390625,12 1.875,12 L9.375,12 C10.4109375,12 11.25,11.1609375 11.25,10.125 L11.25,7.5 C11.25,7.08515625 10.9148437,6.75 10.5,6.75 C10.0851563,6.75 9.75,7.08515625 9.75,7.5 L9.75,10.125 C9.75,10.33125 9.58125,10.5 9.375,10.5 L1.875,10.5 C1.66875,10.5 1.5,10.33125 1.5,10.125 L1.5,2.625 C1.5,2.41875 1.66875,2.25 1.875,2.25 L4.5,2.25 C4.91484375,2.25 5.25,1.91484375 5.25,1.5 C5.25,1.08515625 4.91484375,0.75 4.5,0.75 L1.875,0.75 Z" id="Shape"></path>
                </g>
            </g>
        </g>
    </g>
</svg>