<?xml version="1.0" encoding="UTF-8"?>
<svg width="151px" height="132px" viewBox="0 0 151 132" version="1.1" xmlns="http://www.w3.org/2000/svg" xmlns:xlink="http://www.w3.org/1999/xlink">
    <title>Shape</title>
    <g id="DV-Redesign-R5" stroke="none" stroke-width="1" fill="none" fill-rule="evenodd">
        <g id="05-DV-L4-About-Us---70-Years-R1" transform="translate(-1073, -2879)" fill="#007995" fill-rule="nonzero">
            <g id="12-things" transform="translate(267, 2655)">
                <g id="Circle-1-Copy-2" transform="translate(730, 138)">
                    <path d="M125.546875,100.142857 C121.624414,100.142857 118.46875,103.295536 118.46875,107.214286 L118.46875,196.785714 C118.46875,199.260714 118.055859,201.647321 117.25957,203.857143 L205.765625,203.857143 C209.688086,203.857143 212.84375,200.704464 212.84375,196.785714 L212.84375,107.214286 C212.84375,103.295536 209.688086,100.142857 205.765625,100.142857 L125.546875,100.142857 Z M97.234375,218 C85.4964844,218 76,208.5125 76,196.785714 L76,109.571429 C76,105.652679 79.1556641,102.5 83.078125,102.5 C87.0005859,102.5 90.15625,105.652679 90.15625,109.571429 L90.15625,196.785714 C90.15625,200.704464 93.3119141,203.857143 97.234375,203.857143 C101.156836,203.857143 104.3125,200.704464 104.3125,196.785714 L104.3125,107.214286 C104.3125,95.4875 113.808984,86 125.546875,86 L205.765625,86 C217.503516,86 227,95.4875 227,107.214286 L227,196.785714 C227,208.5125 217.503516,218 205.765625,218 L97.234375,218 Z M127.90625,116.642857 C127.90625,112.724107 131.061914,109.571429 134.984375,109.571429 L163.296875,109.571429 C167.219336,109.571429 170.375,112.724107 170.375,116.642857 L170.375,140.214286 C170.375,144.133036 167.219336,147.285714 163.296875,147.285714 L134.984375,147.285714 C131.061914,147.285714 127.90625,144.133036 127.90625,140.214286 L127.90625,116.642857 Z M186.890625,109.571429 L196.328125,109.571429 C200.250586,109.571429 203.40625,112.724107 203.40625,116.642857 C203.40625,120.561607 200.250586,123.714286 196.328125,123.714286 L186.890625,123.714286 C182.968164,123.714286 179.8125,120.561607 179.8125,116.642857 C179.8125,112.724107 182.968164,109.571429 186.890625,109.571429 Z M186.890625,133.142857 L196.328125,133.142857 C200.250586,133.142857 203.40625,136.295536 203.40625,140.214286 C203.40625,144.133036 200.250586,147.285714 196.328125,147.285714 L186.890625,147.285714 C182.968164,147.285714 179.8125,144.133036 179.8125,140.214286 C179.8125,136.295536 182.968164,133.142857 186.890625,133.142857 Z M134.984375,156.714286 L196.328125,156.714286 C200.250586,156.714286 203.40625,159.866964 203.40625,163.785714 C203.40625,167.704464 200.250586,170.857143 196.328125,170.857143 L134.984375,170.857143 C131.061914,170.857143 127.90625,167.704464 127.90625,163.785714 C127.90625,159.866964 131.061914,156.714286 134.984375,156.714286 Z M134.984375,180.285714 L196.328125,180.285714 C200.250586,180.285714 203.40625,183.438393 203.40625,187.357143 C203.40625,191.275893 200.250586,194.428571 196.328125,194.428571 L134.984375,194.428571 C131.061914,194.428571 127.90625,191.275893 127.90625,187.357143 C127.90625,183.438393 131.061914,180.285714 134.984375,180.285714 Z" id="Shape"></path>
                </g>
            </g>
        </g>
    </g>
</svg>