<?xml version="1.0" encoding="UTF-8"?>
<svg width="33px" height="20px" viewBox="0 0 33 20" version="1.1" xmlns="http://www.w3.org/2000/svg" xmlns:xlink="http://www.w3.org/1999/xlink">
    <title>Shape</title>
    <g id="Symbols" stroke="none" stroke-width="1" fill="none" fill-rule="evenodd">
        <g id="Top-Nav" transform="translate(-1409, -15)" fill="#007995" fill-rule="nonzero">
            <g id="Language" transform="translate(1244, 1)">
                <g id="language-solid" transform="translate(165, 14)">
                    <path d="M0,3.33333333 C0,1.49479167 1.47984375,0 3.3,0 L13.2,0 L15.675,0 L16.5,0 L29.7,0 C31.5201562,0 33,1.49479167 33,3.33333333 L33,16.6666667 C33,18.5052083 31.5201562,20 29.7,20 L16.5,20 L15.675,20 L13.2,20 L3.3,20 C1.47984375,20 0,18.5052083 0,16.6666667 L0,3.33333333 Z M16.5,3.33333333 L16.5,16.6666667 L29.7,16.6666667 L29.7,3.33333333 L16.5,3.33333333 Z M9.19359375,5.828125 C9.02859375,5.453125 8.65734375,5.20833333 8.25,5.20833333 C7.84265625,5.20833333 7.47140625,5.453125 7.30640625,5.828125 L4.00640625,13.328125 C3.774375,13.8541667 4.0115625,14.46875 4.53234375,14.703125 C5.053125,14.9375 5.6615625,14.6979167 5.89359375,14.171875 L6.3525,13.125 L10.1475,13.125 L10.6064062,14.171875 C10.8384375,14.6979167 11.446875,14.9322917 11.9676563,14.703125 C12.4884375,14.4739583 12.7204688,13.8541667 12.4935937,13.328125 L9.19359375,5.828125 Z M8.25,8.8125 L9.2296875,11.0416667 L7.2703125,11.0416667 L8.25,8.8125 Z M23.1,5.20833333 C23.6671875,5.20833333 24.13125,5.67708333 24.13125,6.25 L24.13125,6.45833333 L26.4,6.45833333 L27.225,6.45833333 C27.7921875,6.45833333 28.25625,6.92708333 28.25625,7.5 C28.25625,8.07291667 27.7921875,8.54166667 27.225,8.54166667 L27.121875,8.54166667 L27.039375,8.77604167 C26.5804687,10.046875 25.884375,11.203125 24.9975,12.1822917 C25.0439062,12.2135417 25.0903125,12.2395833 25.1367187,12.265625 L26.11125,12.8541667 C26.6010937,13.1510417 26.7557812,13.7916667 26.4670312,14.28125 C26.1782813,14.7708333 25.5389062,14.9322917 25.0542187,14.640625 L24.0796875,14.0520833 C23.8476562,13.9114583 23.6259375,13.765625 23.4042187,13.609375 C22.8576562,14 22.275,14.3385417 21.6510937,14.6197917 L21.4654687,14.703125 C20.9446875,14.9375 20.33625,14.6979167 20.1042187,14.171875 C19.8721875,13.6458333 20.109375,13.03125 20.6301562,12.796875 L20.8157812,12.7135417 C21.1457812,12.5625 21.4654687,12.3958333 21.7696875,12.203125 L21.140625,11.5677083 C20.7384375,11.1614583 20.7384375,10.5 21.140625,10.09375 C21.5428125,9.6875 22.1976562,9.6875 22.5998437,10.09375 L23.3526562,10.8541667 L23.3784375,10.8802083 C24.0178125,10.1979167 24.5385937,9.40625 24.915,8.53645833 L23.1,8.53645833 L19.3875,8.53645833 C18.8203125,8.53645833 18.35625,8.06770833 18.35625,7.49479167 C18.35625,6.921875 18.8203125,6.453125 19.3875,6.453125 L22.06875,6.453125 L22.06875,6.24479167 C22.06875,5.671875 22.5328125,5.203125 23.1,5.203125 L23.1,5.20833333 Z" id="Shape"></path>
                </g>
            </g>
        </g>
    </g>
</svg>