<?xml version="1.0" encoding="UTF-8"?>
<svg width="15px" height="15px" viewBox="0 0 15 15" version="1.1" xmlns="http://www.w3.org/2000/svg" xmlns:xlink="http://www.w3.org/1999/xlink">
    <title>phone-solid</title>
    <g id="Symbols" stroke="none" stroke-width="1" fill="none" fill-rule="evenodd">
        <g id="phone" fill="#019BC2" fill-rule="nonzero">
            <g id="phone-solid">
                <path d="M4.83084194,0.721331935 C4.60526594,0.176434056 4.01056557,-0.113592234 3.44223122,0.0416743659 L0.864219754,0.744768403 C0.354476577,0.88538721 0,1.34825745 0,1.87557798 C0,9.12330568 5.87669432,15 13.124422,15 C13.6517425,15 14.1146128,14.6455234 14.2552316,14.1357802 L14.9583256,11.5577688 C15.1135922,10.9894344 14.8235659,10.3947341 14.2786681,10.1691581 L11.4662919,8.99733466 C10.9887739,8.79812468 10.4350873,8.93581393 10.1099063,9.33716344 L8.92636471,10.7814358 C6.86395553,9.8058928 5.1941072,8.13604447 4.21856422,6.07363529 L5.66283656,4.89302322 C6.06418607,4.56491267 6.20187532,4.01415567 6.00266534,3.53663764 L4.83084194,0.724261493 L4.83084194,0.721331935 Z" id="Path"></path>
            </g>
        </g>
    </g>
</svg>