<svg xmlns="http://www.w3.org/2000/svg" viewBox="0 0 100 100" preserveAspectRatio="xMidYMid" width="150" height="150" style="shape-rendering: auto; display: block; background: transparent;" xmlns:xlink="http://www.w3.org/1999/xlink"><g><g transform="rotate(0 50 50)">
  <rect x="47" y="22.5" rx="3" ry="7.5" width="6" height="15" fill="#019bc2">
    <animate attributeName="opacity" values="1;0" keyTimes="0;1" dur="0.5s" begin="-0.4444444444444444s" repeatCount="indefinite"></animate>
  </rect>
</g><g transform="rotate(40 50 50)">
  <rect x="47" y="22.5" rx="3" ry="7.5" width="6" height="15" fill="#019bc2">
    <animate attributeName="opacity" values="1;0" keyTimes="0;1" dur="0.5s" begin="-0.3888888888888889s" repeatCount="indefinite"></animate>
  </rect>
</g><g transform="rotate(80 50 50)">
  <rect x="47" y="22.5" rx="3" ry="7.5" width="6" height="15" fill="#019bc2">
    <animate attributeName="opacity" values="1;0" keyTimes="0;1" dur="0.5s" begin="-0.3333333333333333s" repeatCount="indefinite"></animate>
  </rect>
</g><g transform="rotate(120 50 50)">
  <rect x="47" y="22.5" rx="3" ry="7.5" width="6" height="15" fill="#019bc2">
    <animate attributeName="opacity" values="1;0" keyTimes="0;1" dur="0.5s" begin="-0.2777777777777778s" repeatCount="indefinite"></animate>
  </rect>
</g><g transform="rotate(160 50 50)">
  <rect x="47" y="22.5" rx="3" ry="7.5" width="6" height="15" fill="#019bc2">
    <animate attributeName="opacity" values="1;0" keyTimes="0;1" dur="0.5s" begin="-0.2222222222222222s" repeatCount="indefinite"></animate>
  </rect>
</g><g transform="rotate(200 50 50)">
  <rect x="47" y="22.5" rx="3" ry="7.5" width="6" height="15" fill="#019bc2">
    <animate attributeName="opacity" values="1;0" keyTimes="0;1" dur="0.5s" begin="-0.16666666666666666s" repeatCount="indefinite"></animate>
  </rect>
</g><g transform="rotate(240 50 50)">
  <rect x="47" y="22.5" rx="3" ry="7.5" width="6" height="15" fill="#019bc2">
    <animate attributeName="opacity" values="1;0" keyTimes="0;1" dur="0.5s" begin="-0.1111111111111111s" repeatCount="indefinite"></animate>
  </rect>
</g><g transform="rotate(280 50 50)">
  <rect x="47" y="22.5" rx="3" ry="7.5" width="6" height="15" fill="#019bc2">
    <animate attributeName="opacity" values="1;0" keyTimes="0;1" dur="0.5s" begin="-0.05555555555555555s" repeatCount="indefinite"></animate>
  </rect>
</g><g transform="rotate(320 50 50)">
  <rect x="47" y="22.5" rx="3" ry="7.5" width="6" height="15" fill="#019bc2">
    <animate attributeName="opacity" values="1;0" keyTimes="0;1" dur="0.5s" begin="0s" repeatCount="indefinite"></animate>
  </rect>
</g><g></g></g><!-- [ldio] generated by https://loading.io --></svg>