<svg xmlns="http://www.w3.org/2000/svg" viewBox="0 0 100 100" preserveAspectRatio="xMidYMid" width="200" height="200" style="shape-rendering: auto; display: block; background: transparent;" xmlns:xlink="http://www.w3.org/1999/xlink"><g><g transform="rotate(0 50 50)">
  <rect fill="#019bc2" height="14" width="6" ry="7" rx="3" y="23" x="47">
    <animate repeatCount="indefinite" begin="-0.5925925925925926s" dur="0.6666666666666666s" keyTimes="0;1" values="1;0" attributeName="opacity"></animate>
  </rect>
</g><g transform="rotate(40 50 50)">
  <rect fill="#019bc2" height="14" width="6" ry="7" rx="3" y="23" x="47">
    <animate repeatCount="indefinite" begin="-0.5185185185185185s" dur="0.6666666666666666s" keyTimes="0;1" values="1;0" attributeName="opacity"></animate>
  </rect>
</g><g transform="rotate(80 50 50)">
  <rect fill="#019bc2" height="14" width="6" ry="7" rx="3" y="23" x="47">
    <animate repeatCount="indefinite" begin="-0.4444444444444444s" dur="0.6666666666666666s" keyTimes="0;1" values="1;0" attributeName="opacity"></animate>
  </rect>
</g><g transform="rotate(120 50 50)">
  <rect fill="#019bc2" height="14" width="6" ry="7" rx="3" y="23" x="47">
    <animate repeatCount="indefinite" begin="-0.37037037037037035s" dur="0.6666666666666666s" keyTimes="0;1" values="1;0" attributeName="opacity"></animate>
  </rect>
</g><g transform="rotate(160 50 50)">
  <rect fill="#019bc2" height="14" width="6" ry="7" rx="3" y="23" x="47">
    <animate repeatCount="indefinite" begin="-0.2962962962962963s" dur="0.6666666666666666s" keyTimes="0;1" values="1;0" attributeName="opacity"></animate>
  </rect>
</g><g transform="rotate(200 50 50)">
  <rect fill="#019bc2" height="14" width="6" ry="7" rx="3" y="23" x="47">
    <animate repeatCount="indefinite" begin="-0.2222222222222222s" dur="0.6666666666666666s" keyTimes="0;1" values="1;0" attributeName="opacity"></animate>
  </rect>
</g><g transform="rotate(240 50 50)">
  <rect fill="#019bc2" height="14" width="6" ry="7" rx="3" y="23" x="47">
    <animate repeatCount="indefinite" begin="-0.14814814814814814s" dur="0.6666666666666666s" keyTimes="0;1" values="1;0" attributeName="opacity"></animate>
  </rect>
</g><g transform="rotate(280 50 50)">
  <rect fill="#019bc2" height="14" width="6" ry="7" rx="3" y="23" x="47">
    <animate repeatCount="indefinite" begin="-0.07407407407407407s" dur="0.6666666666666666s" keyTimes="0;1" values="1;0" attributeName="opacity"></animate>
  </rect>
</g><g transform="rotate(320 50 50)">
  <rect fill="#019bc2" height="14" width="6" ry="7" rx="3" y="23" x="47">
    <animate repeatCount="indefinite" begin="0s" dur="0.6666666666666666s" keyTimes="0;1" values="1;0" attributeName="opacity"></animate>
  </rect>
</g><g></g></g><!-- [ldio] generated by https://loading.io --></svg>